<svg xmlns="http://www.w3.org/2000/svg" viewBox="0 0 24 24">
  <path fill="#fff" d="M12 3a9 9 0 0 0-7.7 13.6L3 21l4.6-1.2.3.2A8.9 8.9 0 0 0 12 21a9 9 0 1 0 0-18Zm0 16.2c-1.3 0-2.6-.4-3.7-1l-.3-.2-2.2.6.6-2.2-.2-.3A7.2 7.2 0 1 1 12 19.2Z"/>
  <path fill="#fff" d="M10.1 8.4c.2-.4.4-.4.6-.4h.5c.2 0 .3.1.4.3l.7 1.7c.1.2.1.3 0 .5l-.3.5c-.1.1-.1.2 0 .3.3.6 1 1.2 1.6 1.5.1.1.2.1.3 0l.5-.3c.2-.1.3-.1.5 0l1.5.7c.2.1.3.2.3.4 0 .4-.2 1-.7 1.3-.5.3-1.1.4-1.9.3-1.6-.3-3.4-1.6-4.6-3.4-.6-.9-.8-2-.6-2.8.2-.7.8-1.2 1.1-1.4Z"/>
</svg>